<svg width="64" height="64" viewBox="0 0 64 64" fill="none" xmlns="http://www.w3.org/2000/svg">
<rect width="64" height="64" fill="url(#paint0_linear_509_398)"/>
<rect width="64" height="64" fill="url(#paint1_linear_509_398)"/>
<path d="M13.4538 39.6394C13.4538 40.0057 13.1851 40.1928 12.8942 40.226C12.7996 40.2381 12.7351 40.2381 12.6466 40.2381H12.0044V38.1301H12.5912C12.6828 38.1301 12.7472 38.1301 12.8509 38.1392C13.178 38.1754 13.3763 38.3495 13.3763 38.6463C13.3763 38.9029 13.2293 39.0558 13.0009 39.1202C13.2978 39.1846 13.4538 39.3527 13.4538 39.6394ZM12.1946 39.0619H12.6375C12.6898 39.0619 12.7412 39.0588 12.8056 39.0528C13.023 39.0287 13.172 38.9089 13.172 38.6674C13.172 38.4108 12.9948 38.3102 12.7835 38.2911C12.7221 38.2881 12.6647 38.2881 12.6033 38.2881H12.1936V39.0619H12.1946ZM13.2525 39.6575C13.2525 39.407 13.1176 39.251 12.8368 39.2269C12.7663 39.2208 12.721 39.2178 12.6717 39.2178H12.1946V40.0791H12.6898C12.7392 40.0791 12.7935 40.0791 12.8338 40.0761C13.0572 40.058 13.2525 39.9262 13.2525 39.6575Z" fill="white"/>
<path d="M15.019 40.3237C14.8539 40.7513 14.6979 40.8801 14.4684 40.8801C14.413 40.8801 14.3798 40.8801 14.3436 40.871V40.7151C14.3828 40.7211 14.414 40.7211 14.4473 40.7211C14.5942 40.7211 14.7039 40.6446 14.8076 40.385L14.8408 40.2995L14.2017 38.6221H14.4161L14.9384 40.0983L15.4578 38.6221H15.6652L15.019 40.3237Z" fill="white"/>
<path d="M18.5941 38.2861V40.2381H18.4049V38.2861H17.6318V38.1301H19.3681V38.2861H18.5941Z" fill="white"/>
<path d="M21.4304 39.3335V40.2381H21.2412V39.3547C21.2412 39.2631 21.2412 39.1927 21.2352 39.1102C21.214 38.8898 21.0912 38.7318 20.8195 38.7348C20.5507 38.7379 20.3152 38.9301 20.3152 39.4342V40.2381H20.126V37.9772H20.3152V38.9331L20.4008 38.759C20.5326 38.6272 20.6755 38.5789 20.8557 38.5789C21.1979 38.5789 21.3932 38.765 21.4244 39.0619C21.4304 39.1444 21.4304 39.2027 21.4304 39.3335Z" fill="white"/>
<path d="M23.4168 39.9453L23.3372 40.1164C23.2245 40.2291 23.0655 40.2814 22.8883 40.2814C22.5884 40.2814 22.375 40.1254 22.375 39.8326C22.375 39.4633 22.7263 39.2822 23.3101 39.2822H23.4137V39.2239C23.4137 39.1504 23.4137 39.089 23.4077 39.0256C23.3926 38.8395 23.2789 38.7318 23.0474 38.7318C22.8239 38.7318 22.6649 38.8506 22.6407 39.1011H22.4424C22.4636 38.7831 22.7051 38.5789 23.0474 38.5789C23.4047 38.5789 23.5728 38.7409 23.5979 39.0065C23.604 39.077 23.604 39.1444 23.604 39.2208V39.7863C23.604 39.9302 23.613 40.0459 23.6342 40.2381H23.4449L23.4168 39.9453ZM23.4137 39.6153V39.4291C22.9588 39.3989 22.5823 39.5056 22.5823 39.8175C22.5823 40.0218 22.7112 40.1325 22.9457 40.1325C23.2275 40.1315 23.4137 39.9171 23.4137 39.6153Z" fill="white"/>
<path d="M25.971 39.3335V40.2381H25.7817V39.3547C25.7817 39.2631 25.7817 39.1927 25.7757 39.1102C25.7546 38.8898 25.6318 38.7348 25.36 38.7348C25.0913 38.7348 24.8557 38.93 24.8557 39.4342V40.2381H24.6665V38.6221H24.8557V38.9341L24.9413 38.76C25.0731 38.6282 25.2161 38.5799 25.3962 38.5799C25.7385 38.5799 25.9337 38.766 25.9649 39.0629C25.971 39.1444 25.971 39.2027 25.971 39.3335Z" fill="white"/>
<path d="M27.3523 39.5147L27.2053 39.6706V40.2391H27.0161V37.9933H27.2053V39.4633L28.0337 38.6232H28.2813L27.4902 39.3959L28.2884 40.2391H28.0257L27.3523 39.5147Z" fill="white"/>
<path d="M30.1856 39.0739H29.9873C29.941 38.8506 29.8101 38.7318 29.5927 38.7318C29.3975 38.7318 29.2656 38.8415 29.2656 39.0186C29.2656 39.2047 29.4186 39.2782 29.6511 39.3366C30.0235 39.4281 30.2017 39.563 30.2017 39.8346C30.2017 40.1214 29.9571 40.2804 29.6239 40.2804C29.3028 40.2804 29.0492 40.1274 29.0039 39.7612H29.1992C29.2455 40.0359 29.4196 40.1305 29.636 40.1305C29.8403 40.1305 30.0084 40.0359 30.0084 39.8497C30.0084 39.6696 29.8927 39.5811 29.5776 39.5046C29.2998 39.4311 29.0703 39.3184 29.0703 39.0397C29.0703 38.762 29.2908 38.5789 29.6078 38.5789C29.9591 38.5789 30.1483 38.7902 30.1856 39.0739Z" fill="white"/>
<path d="M31.9759 38.2861V40.2381H31.7867V38.2861H31.0137V38.1301H32.7499V38.2861H31.9759Z" fill="white"/>
<path d="M34.8187 39.4321C34.8187 39.9061 34.547 40.2814 34.0336 40.2814C33.5203 40.2814 33.2485 39.9061 33.2485 39.4321C33.2485 38.9552 33.5203 38.5799 34.0336 38.5799C34.547 38.5799 34.8187 38.9552 34.8187 39.4321ZM34.6104 39.4321C34.6104 38.9924 34.3688 38.7328 34.0326 38.7328C33.6964 38.7328 33.4549 38.9924 33.4549 39.4321C33.4549 39.8719 33.6964 40.1315 34.0326 40.1315C34.3688 40.1315 34.6104 39.8719 34.6104 39.4321Z" fill="white"/>
<path d="M36.5205 40.2381H36.3313V39.3979L35.5854 38.1301H35.8029L36.436 39.2118L37.053 38.1301H37.2704L36.5215 39.3949V40.2381H36.5205Z" fill="white"/>
<path d="M39.3441 39.4321C39.3441 39.9061 39.0724 40.2814 38.559 40.2814C38.0457 40.2814 37.7739 39.9061 37.7739 39.4321C37.7739 38.9552 38.0457 38.5799 38.559 38.5799C39.0724 38.5799 39.3441 38.9552 39.3441 39.4321ZM39.1368 39.4321C39.1368 38.9924 38.8952 38.7328 38.559 38.7328C38.2228 38.7328 37.9813 38.9924 37.9813 39.4321C37.9813 39.8719 38.2228 40.1315 38.559 40.1315C38.8952 40.1315 39.1368 39.8719 39.1368 39.4321Z" fill="white"/>
<path d="M41.5501 40.2381H41.3609V39.9262L41.2723 40.1063C41.1434 40.2321 40.9975 40.2804 40.8203 40.2804C40.4902 40.2804 40.2949 40.0942 40.2577 39.8376C40.2486 39.7551 40.2456 39.6968 40.2456 39.566V38.6221H40.4348V39.5237C40.4348 39.6002 40.4379 39.6827 40.4469 39.7652C40.4711 39.9795 40.612 40.1284 40.8626 40.1284C41.1314 40.1284 41.3609 39.9332 41.3609 39.4261V38.6221H41.5501V40.2381Z" fill="white"/>
<path d="M41.4032 36.2274L41.219 36.6973C40.8999 36.8985 40.5235 36.9991 40.1118 36.9991C39.374 36.9991 38.6775 36.5373 38.6775 35.6739C38.6775 34.718 39.5834 34.1304 41.1022 34.1304H41.3871V34.063C41.3871 33.9714 41.3871 33.8789 41.371 33.736C41.3458 33.5096 41.1606 33.3083 40.8335 33.3083C40.4812 33.3083 40.2799 33.5347 40.2547 33.9211L38.8275 33.9292C38.8365 32.8807 39.7676 32.285 40.8999 32.285C42.3181 32.285 42.8043 32.9149 42.8717 33.7279C42.8878 33.9543 42.8969 34.2139 42.8969 34.4906V35.7494C42.8969 36.0855 42.913 36.3873 42.9804 36.8814H41.5038L41.4032 36.2274ZM41.3861 35.2795V34.9857C40.7067 34.9354 40.2205 35.1115 40.2205 35.5562C40.2205 35.8249 40.4299 35.9748 40.7318 35.9748C41.0338 35.9748 41.3861 35.7484 41.3861 35.2795ZM48.299 35.7403C48.299 36.0171 48.299 36.3612 48.2909 36.6047C48.2406 38.0728 47.2331 38.7268 45.7152 38.7268C43.5894 38.7268 43.4414 37.0736 43.4414 37.0736H44.9019C44.9019 37.0736 44.8848 37.619 45.7575 37.619C46.3201 37.619 46.7308 37.3754 46.7721 36.7717C46.7811 36.6379 46.7892 36.4286 46.7892 36.1841V36.0583C46.7892 36.0583 46.5818 36.8301 45.3961 36.8301C44.1792 36.8301 43.3408 36 43.3408 34.6748C43.3408 33.0809 44.3141 32.284 45.4626 32.284C46.5697 32.284 46.7882 32.9803 46.7882 32.9803C46.7882 32.6613 47.0468 32.4017 47.3669 32.4017H48.299V35.7403ZM46.7892 34.5329V34.5077C46.7892 33.6102 46.3282 33.3083 45.8742 33.3083C45.2864 33.3083 44.8838 33.6525 44.8838 34.5671C44.8838 35.4053 45.3035 35.8088 45.832 35.8088C46.3855 35.8078 46.7892 35.4727 46.7892 34.5329ZM14.9041 33.8306V36.9166H14.7149C14.1723 36.9166 13.7355 36.4739 13.7426 35.9315C13.7426 35.9315 13.5322 37.0343 12.0012 37.0343C10.4572 37.0343 9.37519 36.011 9.37519 34.065C9.37519 32.0526 10.735 31.0122 12.3203 31.0122C13.9741 31.0122 14.8206 31.8926 14.9383 33.0336L14.9464 33.1172H13.4366L13.4195 33.0336C13.2936 32.4128 12.9162 32.119 12.3032 32.119C11.5654 32.119 10.9524 32.7237 10.9524 33.9724C10.9524 35.4314 11.5825 35.9265 12.2952 35.9265C12.883 35.9265 13.2685 35.6407 13.4778 35.0038C12.8568 35.0038 12.3535 34.5007 12.3535 33.8799V33.8295H14.9041V33.8306ZM18.587 32.3454V33.578C17.4547 33.5025 17.043 33.9221 17.043 35.2725V36.9166H15.5332V32.438H16.1381C16.6384 32.438 17.044 32.8435 17.044 33.3435C17.044 33.3435 17.5604 32.3212 18.2438 32.3212C18.3847 32.3212 18.4773 32.3293 18.587 32.3454ZM32.9986 34.3799V36.9086H31.4918V34.6315C31.4918 34.4886 31.4918 34.2461 31.4747 34.0207C31.4415 33.5941 31.207 33.3425 30.755 33.3425C30.294 33.3425 29.9679 33.7863 29.9679 34.7995V36.9096H28.4611V32.439H29.2734C29.6569 32.439 29.9689 32.7499 29.9689 33.1333C29.9689 33.1333 30.4189 32.3212 31.3761 32.3212C32.2971 32.3212 32.8416 32.7559 32.9594 33.5347C32.9906 33.7611 32.9986 34.0197 32.9986 34.3799ZM23.2342 34.6184C23.2342 33.4613 22.4783 32.3202 20.9856 32.3202C19.4929 32.3202 18.5941 33.3848 18.5941 34.6939C18.5941 36.2706 19.6177 37.0343 20.9021 37.0343C22.0515 37.0343 22.891 36.4638 23.1507 35.4485H21.666C21.6076 35.7927 21.3479 36.011 20.9192 36.011C20.4914 36.011 20.1643 35.8007 20.0888 35.0541H23.21C23.2261 34.9042 23.2342 34.7533 23.2342 34.6184ZM21.0581 34.4645L20.275 34.4665L21.0772 33.8648C21.1245 33.8295 21.1346 33.7621 21.0993 33.7148C21.0641 33.6675 20.9967 33.6585 20.9494 33.6937L20.0847 34.3407C20.0858 34.1153 20.1492 33.6313 20.6192 33.25C20.6212 33.248 20.6232 33.247 20.6253 33.2449C20.6373 33.2349 20.8185 33.091 21.0581 33.091C21.4375 33.091 21.7455 33.3979 21.7455 33.7772C21.7455 34.1566 21.4375 34.4645 21.0581 34.4645ZM28.0666 34.6184C28.0666 33.4613 27.3117 32.3202 25.818 32.3202C24.3253 32.3202 23.4275 33.3848 23.4275 34.6939C23.4275 36.2706 24.4501 37.0343 25.7344 37.0343C26.8839 37.0343 27.7234 36.4638 27.983 35.4485H26.4984C26.44 35.7927 26.1803 36.011 25.7526 36.011C25.3248 36.011 24.9966 35.8007 24.9222 35.0541H28.0434C28.0585 34.9042 28.0666 34.7533 28.0666 34.6184ZM25.8894 34.4645L25.1064 34.4665L25.9096 33.8648C25.9569 33.8295 25.9669 33.7621 25.9307 33.7148C25.8955 33.6675 25.828 33.6585 25.7807 33.6937L24.9161 34.3407C24.9171 34.1153 24.9805 33.6313 25.4506 33.25C25.4526 33.248 25.4546 33.247 25.4566 33.2449C25.4687 33.2349 25.6499 33.091 25.8894 33.091C26.2689 33.091 26.5769 33.3979 26.5769 33.7772C26.5769 34.1566 26.2689 34.4645 25.8894 34.4645ZM37.1556 32.2609V36.8703H35.6468V32.2609H33.7686C33.7686 31.6129 34.294 31.0876 34.9422 31.0876H38.7107V32.2609H37.1556ZM50.6351 29.6246C51.0629 30.3239 51.2884 31.6511 49.9517 31.9238C49.2461 32.0294 47.9829 31.5766 48.5949 29.9989C49.2179 29.8842 50.0191 29.7373 50.6351 29.6246ZM53.9305 27.6293C54.3543 26.5999 53.8631 25.4216 52.8334 24.999C51.8037 24.5754 50.6251 25.0664 50.2023 26.0958C50.1842 26.1401 48.8032 29.4958 48.8032 29.4958L52.1993 28.8719C52.9723 28.7472 53.6276 28.3638 53.9305 27.6293ZM46.919 28.0961C46.1218 28.2924 45.0277 29.0772 45.7857 30.2102C46.2114 30.7817 47.4283 31.3492 48.1047 29.7977C47.7424 29.2774 47.2773 28.6103 46.919 28.0961ZM46.3382 26.461L48.3121 29.2935C48.3121 29.2935 49.693 25.9378 49.7111 25.8935C50.1349 24.8642 49.6437 23.6859 48.614 23.2633C47.5843 22.8397 46.4057 23.3307 45.9829 24.3601C45.68 25.0946 45.8762 25.8281 46.3382 26.461ZM53.4414 30.3179C53.3417 30.5624 53.237 30.8059 53.1354 31.0484C52.7932 31.8634 52.4519 32.6774 52.1107 33.4925C51.7695 34.3035 51.4263 35.1145 51.0851 35.9265C50.8133 36.5725 50.5425 37.2195 50.2728 37.8675C50.1993 38.0426 50.1107 38.2146 50.1097 38.4118C50.1067 38.7479 50.3825 39.08 50.7197 39.1494C51.0589 39.2188 51.4041 39.0256 51.544 38.6926C51.7494 38.1995 51.9567 37.7075 52.1641 37.2155C52.3825 36.6963 52.6049 36.1781 52.8234 35.6588C53.0649 35.0823 53.3035 34.5047 53.544 33.9282C53.7816 33.3596 54.0201 32.7911 54.2597 32.2236C54.4469 31.7799 54.6351 31.3372 54.8243 30.8954C54.9351 30.6388 54.928 30.3883 54.766 30.1589C54.5949 29.9184 54.3563 29.7966 54.0523 29.8238C53.7524 29.8701 53.5541 30.0401 53.4414 30.3179ZM59.1847 34.1556C59.0921 34.0107 58.9693 33.8909 58.8465 33.7742C58.6603 33.5991 58.4881 33.41 58.314 33.2248C57.856 32.7408 57.3981 32.2568 56.922 31.791C56.7076 31.5817 56.4419 31.5183 56.157 31.634C55.853 31.7578 55.6869 31.9922 55.6608 32.3222C55.6376 32.605 55.7574 32.8264 55.9517 33.0206C56.4479 33.5156 56.93 34.0258 57.4142 34.5339C57.4665 34.5892 57.4655 34.6305 57.4122 34.6818C57.0881 34.9927 56.7851 35.3238 56.4771 35.6508C56.2838 35.8561 56.0845 36.0553 55.8893 36.2575C55.6708 36.4849 55.6024 36.7596 55.688 37.0555C55.8591 37.6401 56.5415 37.8081 56.9723 37.3775C57.1575 37.1933 57.3367 37.0031 57.5178 36.815C58.005 36.3068 58.4881 35.7937 58.9793 35.2896C59.1766 35.0873 59.3216 34.872 59.3055 34.5762C59.3085 34.4262 59.2672 34.2864 59.1847 34.1556ZM4.68272 34.5792C4.66762 34.875 4.81256 35.0903 5.00884 35.2926C5.50003 35.7967 5.98317 36.3099 6.47033 36.818C6.6505 37.0072 6.83067 37.1963 7.01587 37.3805C7.44667 37.8111 8.13011 37.6431 8.30021 37.0585C8.38678 36.7627 8.31833 36.488 8.09891 36.2606C7.90364 36.0573 7.70434 35.8581 7.51109 35.6538C7.20309 35.3268 6.90012 34.9958 6.57602 34.6848C6.52267 34.6335 6.52166 34.5913 6.574 34.5369C7.05815 34.0288 7.53927 33.5186 8.0365 33.0236C8.23076 32.8294 8.35054 32.608 8.32739 32.3253C8.30122 31.9952 8.13615 31.7608 7.83217 31.637C7.54732 31.5203 7.2826 31.5847 7.06721 31.794C6.59011 32.2599 6.13213 32.7438 5.67517 33.2278C5.50003 33.413 5.32892 33.6021 5.1417 33.7772C5.0189 33.8929 4.89611 34.0127 4.80351 34.1586C4.72097 34.2864 4.6797 34.4262 4.68272 34.5792Z" fill="white"/>
<defs>
<linearGradient id="paint0_linear_509_398" x1="52.7667" y1="78.6963" x2="0.698719" y2="-26.8511" gradientUnits="userSpaceOnUse">
<stop offset="0.020807" stop-color="#44C949"/>
<stop offset="1" stop-color="#9FEB8B"/>
</linearGradient>
<linearGradient id="paint1_linear_509_398" x1="52.7667" y1="78.6963" x2="0.698719" y2="-26.8511" gradientUnits="userSpaceOnUse">
<stop offset="0.020807" stop-color="#44C949"/>
<stop offset="1" stop-color="#9FEB8B"/>
</linearGradient>
</defs>
</svg>
