<svg width="196" height="58" viewBox="0 0 196 58" fill="none" xmlns="http://www.w3.org/2000/svg">
<path d="M131.761 47.0775L131.1 48.7641C129.955 49.4864 128.604 49.8476 127.127 49.8476C124.48 49.8476 121.98 48.1898 121.98 45.0911C121.98 41.6602 125.231 39.551 130.681 39.551H131.703V39.309C131.703 38.9804 131.703 38.6481 131.645 38.1353C131.555 37.3227 130.89 36.6004 129.716 36.6004C128.452 36.6004 127.73 37.413 127.64 38.7998L122.519 38.8287C122.551 35.0655 125.892 32.9274 129.955 32.9274C135.043 32.9274 136.788 35.1883 137.03 38.1064C137.088 38.919 137.12 39.8508 137.12 40.844V45.362C137.12 46.5683 137.178 47.6517 137.42 49.425H132.122L131.761 47.0775ZM131.699 43.6754V42.6208C129.261 42.4403 127.517 43.0723 127.517 44.6686C127.517 45.6329 128.268 46.171 129.352 46.171C130.435 46.171 131.699 45.3584 131.699 43.6754ZM156.503 45.3295C156.503 46.3227 156.503 47.5578 156.474 48.4318C156.294 53.7011 152.679 56.0486 147.232 56.0486C139.605 56.0486 139.074 50.1148 139.074 50.1148H144.314C144.314 50.1148 144.253 52.0723 147.384 52.0723C149.403 52.0723 150.876 51.1983 151.025 49.0313C151.057 48.551 151.086 47.7998 151.086 46.9222V46.4708C151.086 46.4708 150.342 49.2408 146.088 49.2408C141.721 49.2408 138.713 46.2613 138.713 41.5049C138.713 35.7842 142.205 32.9238 146.326 32.9238C150.299 32.9238 151.082 35.423 151.082 35.423C151.082 34.2782 152.011 33.3464 153.159 33.3464H156.503V45.3295ZM151.086 40.9956V40.9053C151.086 37.6838 149.432 36.6004 147.803 36.6004C145.694 36.6004 144.249 37.8355 144.249 41.1184C144.249 44.1269 145.755 45.5751 147.651 45.5751C149.638 45.5715 151.086 44.3688 151.086 40.9956ZM36.6792 38.4748V49.5514H36.0002C34.0536 49.5514 32.4862 47.9623 32.5115 46.0157C32.5115 46.0157 31.7566 49.974 26.2635 49.974C20.7234 49.974 16.8409 46.301 16.8409 39.3163C16.8409 32.0932 21.7201 28.3588 27.4083 28.3588C33.3421 28.3588 36.3794 31.5189 36.802 35.6144L36.8309 35.9142H31.4136L31.3522 35.6144C30.9007 33.3861 29.5464 32.3315 27.3469 32.3315C24.6997 32.3315 22.5002 34.5021 22.5002 38.984C22.5002 44.2208 24.7611 45.9976 27.318 45.9976C29.4272 45.9976 30.8104 44.972 31.5616 42.6858C29.3333 42.6858 27.5275 40.8801 27.5275 38.6517V38.4712H36.6792V38.4748ZM49.8939 33.1441V37.5683C45.8309 37.2974 44.3537 38.8034 44.3537 43.6501V49.5514H38.9364V33.4764H41.107C42.9019 33.4764 44.3574 34.9318 44.3574 36.7268C44.3574 36.7268 46.2101 33.0574 48.6623 33.0574C49.1679 33.0574 49.5002 33.0863 49.8939 33.1441ZM101.604 40.4467V49.5225H96.1976V41.3496C96.1976 40.8367 96.1976 39.9663 96.1362 39.1574C96.017 37.6261 95.1755 36.7232 93.5539 36.7232C91.8998 36.7232 90.7297 38.3159 90.7297 41.9527V49.5261H85.3232V33.48H88.2377C89.6137 33.48 90.7333 34.596 90.7333 35.972C90.7333 35.972 92.3477 33.0574 95.7823 33.0574C99.0868 33.0574 101.041 34.6176 101.463 37.413C101.575 38.2256 101.604 39.1537 101.604 40.4467ZM66.5684 41.3026C66.5684 37.1493 63.8561 33.0538 58.5002 33.0538C53.1443 33.0538 49.9191 36.8749 49.9191 41.5735C49.9191 47.2328 53.5921 49.974 58.2004 49.974C62.3248 49.974 65.3369 47.9262 66.2686 44.2822H60.9416C60.7321 45.5173 59.8004 46.301 58.2618 46.301C56.7269 46.301 55.5532 45.5462 55.2823 42.8664H66.4817C66.5395 42.3283 66.5684 41.7866 66.5684 41.3026ZM58.7602 40.7501L55.9504 40.7573L58.8288 38.5976C58.9986 38.4712 59.0347 38.2292 58.9083 38.0594C58.7819 37.8897 58.5399 37.8572 58.3702 37.9836L55.2679 40.3058C55.2715 39.4968 55.499 37.7597 57.1856 36.3909C57.1928 36.3837 57.2 36.3801 57.2073 36.3729C57.2506 36.3367 57.9007 35.8203 58.7602 35.8203C60.1218 35.8203 61.2269 36.9218 61.2269 38.2834C61.2269 39.6449 60.1218 40.7501 58.7602 40.7501ZM83.9075 41.3026C83.9075 37.1493 81.1988 33.0538 75.8393 33.0538C70.4833 33.0538 67.2618 36.8749 67.2618 41.5735C67.2618 47.2328 70.9312 49.974 75.5395 49.974C79.6639 49.974 82.6759 47.9262 83.6077 44.2822H78.2807C78.0712 45.5173 77.1394 46.301 75.6045 46.301C74.0696 46.301 72.8922 45.5462 72.625 42.8664H83.8244C83.8786 42.3283 83.9075 41.7866 83.9075 41.3026ZM76.0957 40.7501L73.2859 40.7573L76.1679 38.5976C76.3377 38.4712 76.3738 38.2292 76.2438 38.0594C76.1173 37.8897 75.8754 37.8572 75.7056 37.9836L72.6033 40.3058C72.6069 39.4968 72.8344 37.7597 74.521 36.3909C74.5283 36.3837 74.5355 36.3801 74.5427 36.3729C74.586 36.3367 75.2361 35.8203 76.0957 35.8203C77.4572 35.8203 78.5624 36.9218 78.5624 38.2834C78.5624 39.6449 77.4572 40.7501 76.0957 40.7501ZM116.52 32.8408V49.3853H111.106V32.8408H104.367C104.367 30.5149 106.252 28.6297 108.578 28.6297H122.1V32.8408H116.52ZM164.886 23.3785C166.421 25.8885 167.23 30.6522 162.433 31.6309C159.902 32.0101 155.369 30.3849 157.565 24.722C159.801 24.3103 162.675 23.783 164.886 23.3785ZM176.71 16.2168C178.23 12.5222 176.468 8.29303 172.773 6.77618C169.079 5.25571 164.85 7.01815 163.333 10.7128C163.268 10.8717 158.313 22.9162 158.313 22.9162L170.498 20.677C173.272 20.2292 175.623 18.8532 176.71 16.2168ZM151.552 17.8925C148.692 18.5968 144.766 21.4138 147.485 25.4804C149.013 27.5318 153.379 29.5687 155.806 23.9997C154.506 22.1325 152.838 19.738 151.552 17.8925ZM149.468 12.0238L156.55 22.1903C156.55 22.1903 161.505 10.1458 161.57 9.98685C163.091 6.29223 161.328 2.0631 157.634 0.546249C153.939 -0.974215 149.71 0.788223 148.193 4.48284C147.106 7.11927 147.81 9.7521 149.468 12.0238ZM174.955 25.8668C174.597 26.7444 174.222 27.6184 173.857 28.4888C172.629 31.4142 171.405 34.3359 170.18 37.2613C168.956 40.1722 167.724 43.0831 166.5 45.9976C165.525 48.3163 164.553 50.6385 163.586 52.9643C163.322 53.5927 163.004 54.2103 163 54.9182C162.99 56.1244 163.979 57.3162 165.189 57.5654C166.406 57.8146 167.645 57.1212 168.147 55.9258C168.884 54.1561 169.628 52.3901 170.372 50.624C171.155 48.7605 171.954 46.9005 172.737 45.037C173.604 42.9675 174.46 40.8945 175.323 38.8251C176.175 36.7846 177.031 34.744 177.891 32.7071C178.563 31.1144 179.238 29.5253 179.917 27.9399C180.314 27.0189 180.289 26.1197 179.708 25.2962C179.094 24.4331 178.238 23.9961 177.147 24.0936C176.071 24.2597 175.359 24.8701 174.955 25.8668ZM195.562 39.6413C195.23 39.1212 194.789 38.6915 194.349 38.2725C193.681 37.6441 193.063 36.9651 192.438 36.3006C190.795 34.5635 189.152 32.8263 187.443 31.1542C186.674 30.403 185.721 30.1754 184.699 30.5908C183.608 31.035 183.012 31.8765 182.918 33.0611C182.835 34.0759 183.265 34.8704 183.962 35.5675C185.742 37.3444 187.472 39.1754 189.21 40.9993C189.397 41.1979 189.394 41.346 189.202 41.5302C188.039 42.6461 186.952 43.8343 185.847 45.0081C185.154 45.7448 184.439 46.4599 183.738 47.1858C182.954 48.002 182.709 48.988 183.016 50.0498C183.63 52.1481 186.078 52.7512 187.624 51.2055C188.289 50.5446 188.931 49.862 189.581 49.1866C191.329 47.3628 193.063 45.5209 194.825 43.7115C195.533 42.9856 196.053 42.2127 195.996 41.1509C196.006 40.6128 195.858 40.1108 195.562 39.6413ZM0.00387497 41.1618C-0.0502983 42.2236 0.469766 42.9964 1.17402 43.7224C2.93646 45.5317 4.67 47.3736 6.41799 49.1975C7.06446 49.8764 7.71093 50.5554 8.37545 51.2163C9.9212 52.7621 12.3734 52.1589 12.9838 50.0606C13.2944 48.9988 13.0488 48.0129 12.2615 47.1967C11.5608 46.4671 10.8458 45.7521 10.1523 45.0189C9.0472 43.8452 7.96013 42.657 6.79721 41.541C6.60579 41.3568 6.60218 41.2051 6.78998 41.0101C8.52714 39.1863 10.2535 37.3552 12.0376 35.5783C12.7346 34.8813 13.1644 34.0867 13.0813 33.0719C12.9874 31.8873 12.3951 31.0458 11.3044 30.6016C10.2824 30.1826 9.33252 30.4138 8.55964 31.165C6.84777 32.8371 5.20451 34.5743 3.56487 36.3115C2.93646 36.976 2.32249 37.655 1.65074 38.2834C1.21013 38.6987 0.769524 39.1285 0.437262 39.6521C0.141114 40.1108 -0.00695969 40.6128 0.00387497 41.1618Z" fill="#44C949"/>
</svg>
