<svg width="181" height="47" viewBox="0 0 181 47" fill="none" xmlns="http://www.w3.org/2000/svg">
<mask id="mask0_724_860" style="mask-type:luminance" maskUnits="userSpaceOnUse" x="0" y="0" width="181" height="47">
<path d="M180.5 0.5H0.5V46.5H180.5V0.5Z" fill="white"/>
</mask>
<g mask="url(#mask0_724_860)">
<path d="M166.799 25.9896C168.501 28.7309 169.39 33.9246 164.082 34.9898C161.282 35.4026 156.259 33.6356 158.691 27.4593C161.164 27.0135 164.351 26.4355 166.799 25.9896Z" fill="url(#paint0_linear_724_860)"/>
<path d="M179.896 18.1866C181.581 14.1572 179.628 9.54973 175.536 7.89007C171.444 6.23041 166.765 8.1543 165.08 12.1837L159.521 25.4941L173.012 23.05C176.089 22.5628 178.697 21.0601 179.896 18.1866Z" fill="url(#paint1_linear_724_860)"/>
<path d="M152.041 20.0115C148.872 20.7794 144.528 23.851 147.539 28.2851C149.232 30.5227 154.07 32.7439 156.754 26.6667C155.311 24.6354 153.467 22.018 152.041 20.0032V20.0115Z" fill="url(#paint2_linear_724_860)"/>
<path d="M148.319 5.38817C150.005 1.35874 154.684 -0.565156 158.775 1.09451C162.867 2.75418 164.821 7.36161 163.136 11.391C163.06 11.5644 157.576 24.7014 157.576 24.7014L149.736 13.6122C147.9 11.1351 147.12 8.26163 148.319 5.38817Z" fill="url(#paint3_linear_724_860)"/>
<path d="M10.3523 32.9585V46.1615H5.967V32.9585H0.5C0.5 31.1006 2.02606 29.5978 3.91268 29.5978H14.8718V32.9585H10.3523Z" fill="#4D6D98"/>
<path d="M29.4871 38.9118V46.1615H25.1017V39.6301C25.1017 39.2256 25.1017 38.5237 25.0514 37.8797C24.9508 36.6576 24.2716 35.931 22.9552 35.931C21.6388 35.931 20.6661 37.2026 20.6661 40.1091V46.1615H16.2808V29.5978C18.704 29.5978 20.6661 31.53 20.6661 33.9163V35.3365C20.6661 35.3365 21.6388 33.008 24.758 33.008C27.4411 33.008 29.0259 34.2548 29.3697 36.4925C29.4703 37.1448 29.4955 37.8879 29.4955 38.92L29.4871 38.9118Z" fill="#4D6D98"/>
<path d="M38.7104 44.2954C38.7104 44.2954 38.6601 46.5083 34.9539 46.5083C32.8074 46.5083 30.7866 45.1871 30.7866 42.7183C30.7866 39.9852 33.4195 38.3008 37.83 38.3008H38.6601V38.1108C38.6601 37.8466 38.6601 37.5824 38.6098 37.1778C38.5343 36.5255 37.9977 35.9558 37.0502 35.9558C36.0272 35.9558 35.4403 36.6081 35.3648 37.7063L31.2226 37.731C31.2478 34.7337 33.9561 33.0245 37.243 33.0245C41.3601 33.0245 42.7771 34.8245 42.97 37.153C43.0203 37.8053 43.0454 38.5485 43.0454 39.3411V42.9412C43.0454 43.899 43.0957 44.766 43.2886 46.1862H38.9955L38.702 44.3119L38.7104 44.2954ZM38.6601 41.5788V40.7366C36.6813 40.5962 35.2726 41.0999 35.2726 42.3715C35.2726 43.1394 35.8847 43.5688 36.7567 43.5688C37.6288 43.5688 38.6601 42.9164 38.6601 41.5788Z" fill="#4D6D98"/>
<path d="M58.2893 38.9118V46.1615H53.904V39.6301C53.904 39.2256 53.904 38.5237 53.8537 37.8797C53.7531 36.6576 53.0739 35.931 51.7574 35.931C50.441 35.931 49.4683 37.2026 49.4683 40.1091V46.1615H45.083V33.3383H47.4476C48.5628 33.3383 49.4683 34.23 49.4683 35.3282C49.4683 35.3282 50.7764 32.9997 53.5602 32.9997C56.344 32.9997 57.8282 34.2466 58.1719 36.4842C58.2726 37.1365 58.2977 37.8797 58.2977 38.9118H58.2893Z" fill="#4D6D98"/>
<path d="M64.5528 42.421V46.1697H60.1675V28.5244C62.5907 28.5244 64.5528 30.4566 64.5528 32.8428V38.7219L69.1394 33.3465H74.2878L68.7788 39.2255L74.3631 46.1615H68.9717L65.4835 41.4054L64.5612 42.4128L64.5528 42.421Z" fill="#4D6D98"/>
<path d="M85.792 37.087H81.4736C81.2807 36.1952 80.8363 35.6915 80.0565 35.6915C79.4444 35.6915 79.0084 36.0796 79.0084 36.6246C79.0084 37.3429 79.5953 37.8219 82.0773 38.4246C84.442 39.0026 86.1274 40.01 86.1274 42.4788C86.1274 45.2119 83.5195 46.4918 80.3751 46.4918C76.8367 46.4918 74.4218 45.055 74.0864 42.1733H78.4047C78.6478 43.1559 79.4276 43.8082 80.3584 43.8082C81.1382 43.8082 81.7503 43.4944 81.7503 42.8256C81.7503 42.0082 80.9202 41.554 78.6059 41.0256C76.1156 40.4476 74.6314 39.3246 74.6314 37.1365C74.6314 34.5933 76.8786 33.008 80.3332 33.008C83.5782 33.008 85.4566 34.7585 85.792 37.087Z" fill="#4D6D98"/>
<path d="M96.072 32.9585V46.1615H91.6866V32.9585H86.228C86.228 31.1006 87.7541 29.5978 89.6407 29.5978H101.539V32.9585H96.0804H96.072Z" fill="#4D6D98"/>
<path d="M113.99 39.754C113.99 43.8578 111.257 46.5 106.989 46.5C102.721 46.5 99.9873 43.8578 99.9873 39.754C99.9873 35.6503 102.721 33.008 106.989 33.008C111.257 33.008 113.99 35.6255 113.99 39.754ZM109.504 39.754C109.504 37.1861 108.557 35.9392 106.989 35.9392C105.421 35.9392 104.482 37.1861 104.482 39.754C104.482 42.3219 105.429 43.5688 106.989 43.5688C108.548 43.5688 109.504 42.2972 109.504 39.754Z" fill="#4D6D98"/>
<path d="M123.843 46.1615H119.457V39.82L113.529 29.5896H118.451L121.763 36.1457L124.958 29.5896H129.763L123.834 39.82V46.1615H123.843Z" fill="#4D6D98"/>
<path d="M140.94 39.754C140.94 43.8578 138.206 46.5 133.938 46.5C129.67 46.5 126.945 43.8578 126.945 39.754C126.945 35.6503 129.679 33.008 133.938 33.008C138.198 33.008 140.94 35.6255 140.94 39.754ZM136.454 39.754C136.454 37.1861 135.506 35.9392 133.938 35.9392C132.37 35.9392 131.431 37.1861 131.431 39.754C131.431 42.3219 132.379 43.5688 133.938 43.5688C135.498 43.5688 136.454 42.2972 136.454 39.754Z" fill="#4D6D98"/>
<path d="M150.809 46.1615V43.9981C150.809 43.9981 149.97 46.4917 146.717 46.4917C144.034 46.4917 142.399 45.0055 142.105 43.2467C142.005 42.5944 141.979 41.8513 141.979 40.8192V33.33H146.365V39.8613C146.365 40.2659 146.39 40.9678 146.465 41.6118C146.608 42.8339 147.195 43.5605 148.587 43.5605C149.979 43.5605 150.809 42.2889 150.809 40.5797V33.33H155.194V41.8265C155.194 44.2128 153.232 46.145 150.809 46.145V46.1615Z" fill="#4D6D98"/>
</g>
<defs>
<linearGradient id="paint0_linear_724_860" x1="159.555" y1="25.7528" x2="166.143" y2="33.6637" gradientUnits="userSpaceOnUse">
<stop stop-color="#FCCE00"/>
<stop offset="0.6" stop-color="#FDDC00"/>
<stop offset="1" stop-color="#FFE900"/>
</linearGradient>
<linearGradient id="paint1_linear_724_860" x1="159.432" y1="21.0301" x2="175.308" y2="13.6507" gradientUnits="userSpaceOnUse">
<stop stop-color="#A2195B"/>
<stop offset="1" stop-color="#E61B72"/>
</linearGradient>
<linearGradient id="paint2_linear_724_860" x1="157.309" y1="24.969" x2="146.967" y2="25.8899" gradientUnits="userSpaceOnUse">
<stop stop-color="#4D6D98"/>
<stop offset="0.14" stop-color="#5284AE"/>
<stop offset="0.35" stop-color="#599FCA"/>
<stop offset="0.57" stop-color="#5EB3DD"/>
<stop offset="0.78" stop-color="#61BFE9"/>
<stop offset="1" stop-color="#63C3ED"/>
</linearGradient>
<linearGradient id="paint3_linear_724_860" x1="160.8" y1="21.8212" x2="154.764" y2="5.58766" gradientUnits="userSpaceOnUse">
<stop stop-color="#A3BA09"/>
<stop offset="1" stop-color="#DDDB00"/>
</linearGradient>
</defs>
</svg>
